<svg id="Layer_1" data-name="Layer 1" xmlns="http://www.w3.org/2000/svg" viewBox="0 0 939.93 193.97"><defs><style>.cls-1,.cls-7{fill:#e5a724;}.cls-2{fill:#4e4d4d;}.cls-3{fill:#807f80;}.cls-4{fill:#99a539;}.cls-5{fill:#959743;}.cls-6{fill:#e6e7e8;}.cls-7{fill-rule:evenodd;}.cls-8{fill:#98a539;}</style></defs><polygon class="cls-1" points="528.63 62.19 527.33 68.12 512.76 68.12 512.76 83.23 506.86 84.35 506.86 68.12 491.07 68.12 492.2 62.19 506.86 62.19 506.86 47.07 512.76 45.96 512.76 62.19 528.63 62.19"/><path class="cls-2" d="M200.24,166.42l-.08-56.88h3v53.92H217l.12,3Zm33.91,0,8.69-56.8h3.24l9.37,56.8H252l-3.51-19.36h-7.68l-3.47,19.36Zm6.53-22.31h7.57l-4-28.84Zm31.62,22.31h2.91V121.21l11.49,45.21h2.38V109.69h-2.83v43l-10.89-43-3.06.07Zm33.94,0V109.91h7.05a7.26,7.26,0,0,1,3.66.74,8.6,8.6,0,0,1,3,4.1,36.09,36.09,0,0,1,2.43,9.62,103.18,103.18,0,0,1,.78,13.42,113.27,113.27,0,0,1-.52,11.44,54,54,0,0,1-1.4,8.19,26.18,26.18,0,0,1-1.87,5.12,7.86,7.86,0,0,1-2.44,2.88,5.78,5.78,0,0,1-3.32,1Zm2.62-2.33h4.29a6.94,6.94,0,0,0,2.57-1.81A16.46,16.46,0,0,0,318,157a36.68,36.68,0,0,0,1.57-7.9q.3-3.76.74-11.34a103.25,103.25,0,0,0-1.41-16.36,33.59,33.59,0,0,0-2.24-7.64,5.5,5.5,0,0,0-3.62-1.26h-4.21Zm35.31-31.8q0,3.41,3.14,3.4h7.9q2.84,0,2.84,3.55v21.12a7.5,7.5,0,0,1-1.14,4.14,4.48,4.48,0,0,1-3.79,1.92h-7.9a3.91,3.91,0,0,1-2.84-1.85,6,6,0,0,1-1.12-3.77V148.39h2.61v10.42a8.85,8.85,0,0,0,.6,3.69q.6,1.26,2.76,1.26h3.66a3.89,3.89,0,0,0,3.24-1.33,5.58,5.58,0,0,0,1.05-3.55l-.12-16.69c.08-2.31-1-3.5-3.13-3.55h-6.71q-3.89,0-3.88-5v-18a7.55,7.55,0,0,1,1.13-4.14,4.48,4.48,0,0,1,3.79-1.92h7.91a3.61,3.61,0,0,1,3.06,1.85,7,7,0,0,1,.89,3.77v12.41h-2.61V117.15a8.85,8.85,0,0,0-.6-3.69q-.59-1.26-2.76-1.26H347a2.25,2.25,0,0,0-2.07,1.33,7.35,7.35,0,0,0-.73,3.55l0,12.85Zm34.85,5v-7.38l0-12.85a7.35,7.35,0,0,1,.73-3.55,2.25,2.25,0,0,1,2.07-1.33H387q2.17,0,2.76,1.26a8.85,8.85,0,0,1,.6,3.69v10.42H393V115.16a5.44,5.44,0,0,0-1.34-3.77,5,5,0,0,0-3.66-1.85h-6.86a4.5,4.5,0,0,0-3.79,1.92,7.55,7.55,0,0,0-1.13,4.14v44.76a8,8,0,0,0,1.06,4.06,4.23,4.23,0,0,0,3.71,2h7.31a4.32,4.32,0,0,0,3.43-1.85,6,6,0,0,0,1.12-3.77V148.39h-2.61v10.42a9,9,0,0,1-.59,3.69q-.6,1.26-2.76,1.26H383.2c-1.79,0-2.93-.45-3.43-1.33a7.6,7.6,0,0,1-.75-3.7V137.31Zm31.74,29.11,8.69-56.8h3.24l9.37,56.8h-3.47l-3.51-19.36H417.4l-3.47,19.36Zm6.53-22.31h7.57l-4-28.84Zm31.6,22.31V109.65h9.21a5.51,5.51,0,0,1,4.24,1.55,12.13,12.13,0,0,1,2.31,5.41,39,39,0,0,1,.88,8.55,26.93,26.93,0,0,1-1.48,9.79q-1.47,3.74-2.89,4.65a13,13,0,0,1-4.1,1.56l-2.24,0h-3.21v25.23Zm2.76-27.48H457a9.15,9.15,0,0,0,3.74-2.81,14.09,14.09,0,0,0,1.64-4.43,46.58,46.58,0,0,0,.93-6.9,50,50,0,0,0-1.38-9.42c-.65-2.32-2.51-3.72-5.6-4.21l-4.66.11Zm32.15,27.48V109.76h16.37l0,2.59H486.71V135.8h12.38v2.92H486.71v24.89h13.87l.11,2.81Zm63,0,8.69-56.8h3.25l9.36,56.8h-3.47l-3.5-19.36h-7.69L550,166.42Zm6.53-22.31h7.57l-4-28.84ZM585,166.42V109.58h9.21a5.52,5.52,0,0,1,4.23,1.53,12,12,0,0,1,2.32,5.41,39.21,39.21,0,0,1,.87,8.57,31.5,31.5,0,0,1-1.43,10.19q-1.44,4.14-4.42,5.25a12.86,12.86,0,0,1,1.64,2.84,58.25,58.25,0,0,1,2.27,7.54l3.66,15.51h-3.47l-2.76-11.86q-1.23-5.13-2-7.85a18.84,18.84,0,0,0-1.39-3.78,4.69,4.69,0,0,0-1.25-1.52,3.33,3.33,0,0,0-1.53-.25h-3.21v25.26Zm2.76-27.48h5.11a4.67,4.67,0,0,0,3.5-2.14,16.94,16.94,0,0,0,1.64-4.66,43.41,43.41,0,0,0,.9-7.27,34.08,34.08,0,0,0-1.08-9.53c-.72-2.39-2.48-3.73-5.26-4h-4.81Zm35-1.47-.14-5-.07-2.36-.32-12.85a7.3,7.3,0,0,1,.62-3.56,2.26,2.26,0,0,1,2-1.39l5.15-.15c1.44,0,2.37.36,2.79,1.18a8.83,8.83,0,0,1,.71,3.67l.29,10.42,2.61-.08-.35-12.4a5.42,5.42,0,0,0-1.45-3.73,5,5,0,0,0-3.71-1.74l-6.86.19a4.5,4.5,0,0,0-3.73,2,7.56,7.56,0,0,0-1,4.17l.07,2.36,1.14,40,.06,2.36a8.1,8.1,0,0,0,1.18,4,4.22,4.22,0,0,0,3.77,1.89l7.31-.21a4.31,4.31,0,0,0,3.37-1.94,6,6,0,0,0,1-3.8l-.36-12.4-2.61.07.3,10.41a9.11,9.11,0,0,1-.49,3.71c-.38.85-1.28,1.29-2.73,1.33l-3.65.11c-1.79.05-3-.36-3.47-1.24a7.67,7.67,0,0,1-.85-3.67l-.47-16.53Zm35,1.17v27.78h-3V109.69h2.83v26H669v-26h2.54v56.73h-3V142.19l.12-3.47-3.25-.08Zm56.1-28.95h16.86v2.66h-7.31v54.07h-2.69V112.35h-6.86Zm-22.68-.07h2.65v56.72h-2.68V112.28Zm57.6,56.8V109.76h16.38l0,2.59H751.7V135.8h12.39v2.92H751.7v24.89h13.88l.11,2.81Zm37.75-29.11v-7.38l0-12.85a7.47,7.47,0,0,1,.73-3.55,2.27,2.27,0,0,1,2.07-1.33h5.15q2.16,0,2.76,1.26a8.85,8.85,0,0,1,.6,3.69v10.42h2.61V115.16a5.4,5.4,0,0,0-1.35-3.77,5,5,0,0,0-3.65-1.85h-6.86a4.48,4.48,0,0,0-3.79,1.92,7.48,7.48,0,0,0-1.14,4.14v44.76a8.06,8.06,0,0,0,1.06,4.06,4.23,4.23,0,0,0,3.72,2h7.31a4.33,4.33,0,0,0,3.43-1.85,6,6,0,0,0,1.12-3.77V148.39h-2.61v10.42a8.85,8.85,0,0,1-.6,3.69q-.6,1.26-2.76,1.26h-3.66c-1.79,0-2.93-.45-3.43-1.33a7.61,7.61,0,0,1-.74-3.7V137.31Zm31.84-27.62h16.86v2.66h-7.31v54.07h-2.68V112.35h-6.87Zm34.85,50.52a7.49,7.49,0,0,0,1.2,4.29c.79,1.18,2.19,1.82,4.18,1.92h6.23c2-.1,3.38-.74,4.17-1.92a7.49,7.49,0,0,0,1.2-4.29V109.69h-3v49.19a5.63,5.63,0,0,1-1,3.55,4.09,4.09,0,0,1-3.4,1.33h-1.94a4.32,4.32,0,0,1-3.58-1.33,5.63,5.63,0,0,1-1-3.55V109.69h-3v50.52Zm34.87,6.21V109.58h9.22a5.53,5.53,0,0,1,4.23,1.53,11.86,11.86,0,0,1,2.31,5.41,38.59,38.59,0,0,1,.88,8.57,31.21,31.21,0,0,1-1.44,10.19c-.95,2.76-2.43,4.51-4.42,5.25a12.92,12.92,0,0,1,1.65,2.84,58.25,58.25,0,0,1,2.27,7.54l3.66,15.51H903l-2.76-11.86c-.82-3.42-1.5-6-2-7.85a18.71,18.71,0,0,0-1.4-3.78,4.56,4.56,0,0,0-1.25-1.52,3.27,3.27,0,0,0-1.53-.25h-3.2v25.26Zm2.76-27.48H896a4.69,4.69,0,0,0,3.51-2.14,17.28,17.28,0,0,0,1.64-4.66,43.41,43.41,0,0,0,.9-7.27,34.08,34.08,0,0,0-1.08-9.53q-1.1-3.59-5.26-4h-4.82ZM923,166.42V109.76H939.4l0,2.59H925.94V135.8h12.38v2.92H925.94v24.89h13.87l.12,2.81Z"/><path class="cls-3" d="M595.16,87.8l-8.46,2.32L576.42,69.33h-24L541.85,90.12l-8.63-2.32,30.62-60.4Zm-22.6-26.28L564.31,45,556,61.52Zm54.77,15.54A11.7,11.7,0,0,1,623,86.47a16.58,16.58,0,0,1-11,3.65,18.57,18.57,0,0,1-8.46-1.81,20,20,0,0,1-6.64-5.66l5.9-4.81a14.19,14.19,0,0,0,4,3A10.24,10.24,0,0,0,611.54,82a9.61,9.61,0,0,0,5-1.2A4.63,4.63,0,0,0,619,76.63q0-4.12-10.67-7.13T597.66,57.39a11.65,11.65,0,0,1,4.47-9.31,16,16,0,0,1,10.63-3.74,17,17,0,0,1,7.07,1.54,21,21,0,0,1,6.11,4.21l-5.11,5.76A17.61,17.61,0,0,0,617,52.93a8.79,8.79,0,0,0-4.3-1.12A8.29,8.29,0,0,0,608,53.14a4.57,4.57,0,0,0-2,4.08q0,3.87,10.67,6.87T627.33,77.06Zm35.66,0a11.7,11.7,0,0,1-4.38,9.41,16.58,16.58,0,0,1-11,3.65,18.57,18.57,0,0,1-8.46-1.81,19.85,19.85,0,0,1-6.63-5.66l5.89-4.81a14.19,14.19,0,0,0,4,3A10.24,10.24,0,0,0,647.2,82a9.64,9.64,0,0,0,5-1.2,4.64,4.64,0,0,0,2.42-4.21q0-4.12-10.66-7.13T633.33,57.39a11.64,11.64,0,0,1,4.46-9.31,16,16,0,0,1,10.63-3.74,17,17,0,0,1,7.07,1.54,21,21,0,0,1,6.11,4.21l-5.11,5.76a17.61,17.61,0,0,0-3.86-2.92,8.76,8.76,0,0,0-4.3-1.12,8.29,8.29,0,0,0-4.68,1.33,4.57,4.57,0,0,0-2,4.08q0,3.87,10.67,6.87T663,77.06Zm52.82-10q0,10.14-6.64,16.62a22.78,22.78,0,0,1-16.61,6.49,23.31,23.31,0,0,1-16.83-6.53A21.83,21.83,0,0,1,669,67.19,21.66,21.66,0,0,1,675.86,51a22.85,22.85,0,0,1,16.44-6.66A23.27,23.27,0,0,1,709,50.87,21.39,21.39,0,0,1,715.81,67Zm-8.24-.08A15.18,15.18,0,1,0,692.48,82a14.92,14.92,0,0,0,10.84-4.12Q707.57,73.8,707.57,66.93ZM761.27,83a22.74,22.74,0,0,1-17.09,7.13,21.68,21.68,0,0,1-16-6.79,22.18,22.18,0,0,1-6.68-16.14,22.78,22.78,0,0,1,6.33-16.07,21.65,21.65,0,0,1,16.57-7.21,24.15,24.15,0,0,1,8.8,1.66,31.37,31.37,0,0,1,8.11,4.63l-5.46,5.91a22.35,22.35,0,0,0-5.47-3.33,15.88,15.88,0,0,0-6-1.05,15.09,15.09,0,0,0-14.58,14.55,15.48,15.48,0,0,0,4.43,11.2,14.72,14.72,0,0,0,11,4.56,13.54,13.54,0,0,0,5.56-1.2,18.79,18.79,0,0,0,5-3.35ZM779,33.84l-5.2,6.7-5.47-6.7,5.47-6.7Zm-1.3,54.65-8,1.11V46.23l8-1.2Zm45.8-.09-8,1.12V84.45a12.8,12.8,0,0,1-4.89,4.25,14.6,14.6,0,0,1-6.53,1.42q-7.6,0-12.32-4.51T787,73.54a14.54,14.54,0,0,1,4.85-11A17.18,17.18,0,0,1,804.15,58a18.3,18.3,0,0,1,6.18,1,14.81,14.81,0,0,1,5.15,3.31V58.77q0-4.12-3.2-5.76-2.43-1.2-7.35-1.2a30.05,30.05,0,0,0-6.35.73,31.56,31.56,0,0,0-6.35,2.11l1.82-8.59a59.74,59.74,0,0,1,6.85-1.25,54.66,54.66,0,0,1,6.68-.47q7.11,0,11.19,3.43,4.68,4,4.69,11.86Zm-7.64-14.64A6.74,6.74,0,0,0,812.66,68a11.66,11.66,0,0,0-6.81-2.22,12.84,12.84,0,0,0-7,1.88,6.81,6.81,0,0,0-3.47,6c0,3,1,5.16,3,6.58a12.88,12.88,0,0,0,7.46,1.88,11.25,11.25,0,0,0,7-2.26A7.28,7.28,0,0,0,815.82,73.76Zm40.85,7.88a3.6,3.6,0,0,0,1.05-.2l-1.57,7.74a5.3,5.3,0,0,1-1.21.17,42.11,42.11,0,0,1-5.55.42q-6.42,0-9.8-3.59-3.65-3.86-3.65-11.66V52.76h-6.76l3-7.48h3.81v-11l8-2.15V45.28h12.23v7.48H843.92V74.44q0,7.52,7.81,7.52a38.19,38.19,0,0,0,4.94-.32ZM904,56.36,872.12,74.91a17,17,0,0,0,4.6,5A13.09,13.09,0,0,0,884.18,82a21.23,21.23,0,0,0,9.1-2.06,42.94,42.94,0,0,0,7.9-5.06l1.73,8.5a36.22,36.22,0,0,1-8.8,5,26.38,26.38,0,0,1-9.5,1.72,23.32,23.32,0,0,1-16.83-6.62,21.69,21.69,0,0,1-6.85-16.23A23,23,0,0,1,884,44.34,22.63,22.63,0,0,1,895.8,47.6,20.66,20.66,0,0,1,904,56.36Zm-12-1.58a11.26,11.26,0,0,0-8-3,14.91,14.91,0,0,0-14.73,14.73l0,1.56Zm47,22.28a11.7,11.7,0,0,1-4.38,9.41,16.58,16.58,0,0,1-11,3.65,18.57,18.57,0,0,1-8.46-1.81,19.85,19.85,0,0,1-6.63-5.66l5.89-4.81a14.09,14.09,0,0,0,4,3A10.19,10.19,0,0,0,923.21,82a9.63,9.63,0,0,0,5-1.2,4.63,4.63,0,0,0,2.43-4.21q0-4.12-10.67-7.13T909.33,57.39a11.67,11.67,0,0,1,4.46-9.31,16,16,0,0,1,10.63-3.74,17,17,0,0,1,7.07,1.54,21.22,21.22,0,0,1,6.12,4.21l-5.12,5.76a17.38,17.38,0,0,0-3.86-2.92,8.76,8.76,0,0,0-4.3-1.12,8.29,8.29,0,0,0-4.68,1.33,4.57,4.57,0,0,0-2,4.08q0,3.87,10.67,6.87T939,77.06Z"/><path class="cls-4" d="M229.73,59.35q7.46,4.47,7.46,13.59a15.72,15.72,0,0,1-5.86,12.47,20.28,20.28,0,0,1-13.58,5,23.4,23.4,0,0,1-10.53-2.33,24.16,24.16,0,0,1-8.38-7l6.6-5.53a24.06,24.06,0,0,0,5.29,5,13,13,0,0,0,7,1.83,11.82,11.82,0,0,0,7.38-2.24,8.21,8.21,0,0,0,3.29-7q0-5.59-7.37-8.52Q214.1,62,207.26,59.36,199.79,55,199.8,45.85a14.31,14.31,0,0,1,5.64-12,22.22,22.22,0,0,1,14-4.34,20.28,20.28,0,0,1,9.28,2.19,21.37,21.37,0,0,1,7.38,6.14L230,44a19.78,19.78,0,0,0-5-4.72,13.56,13.56,0,0,0-6.85-1.63,10.82,10.82,0,0,0-6.76,2.11,7,7,0,0,0-2.78,5.89q0,5.34,7.11,8.17t14.06,5.51Zm56.47-3.13L254.36,74.77a16.78,16.78,0,0,0,4.6,5,13,13,0,0,0,7.46,2.15,21.35,21.35,0,0,0,9.1-2.06,43.6,43.6,0,0,0,7.9-5.07l1.73,8.5a36.61,36.61,0,0,1-8.8,5,26.37,26.37,0,0,1-9.5,1.71A23.31,23.31,0,0,1,250,83.36a21.71,21.71,0,0,1-6.85-16.23A23,23,0,0,1,266.25,44.2,22.53,22.53,0,0,1,278,47.46,20.66,20.66,0,0,1,286.2,56.22Zm-12-1.58a11.3,11.3,0,0,0-8-3A14.91,14.91,0,0,0,251.5,66.4l0,1.55Zm46.68-10.36-3.91,8H315.6q-7.12,0-10.33,5.5-2.68,4.54-2.69,12.45V88.34l-8,1.12V46.08l8-1.2v8.85a18.47,18.47,0,0,1,5.95-7.3,15.08,15.08,0,0,1,8.8-2.49c.58,0,1.17,0,1.78.08S320.31,44.17,320.89,44.28Zm48.93,58.58-7.8.94V83.27a20.85,20.85,0,0,1-15.6,6.7,21.12,21.12,0,0,1-16.08-6.82,23,23,0,0,1-6.4-16.28,22.18,22.18,0,0,1,6.49-15.93,22,22,0,0,1,24.18-5.11A27.34,27.34,0,0,1,362,50.64V46l7.8-1.2ZM362,67a14.56,14.56,0,0,0-4.51-11,15.62,15.62,0,0,0-11.19-4.29,13,13,0,0,0-9.94,4.51,14.91,14.91,0,0,0-4.12,10.35,15.69,15.69,0,0,0,4,11,12.94,12.94,0,0,0,10,4.38,15.72,15.72,0,0,0,11.41-4.25A14.29,14.29,0,0,0,362,67Zm57,21.3-8,1.11v-6a21.28,21.28,0,0,1-6.22,5A17,17,0,0,1,397.18,90q-6.69,0-10.7-4.12-4.26-4.38-4.26-11.94V46l8-1.2V73.91a7.15,7.15,0,0,0,2.61,5.84,10.18,10.18,0,0,0,6.71,2.15A10.46,10.46,0,0,0,408,78.29q3-3.6,3-9.79V46l8-1.2ZM440.5,33.7l-5.2,6.69-5.47-6.69L435.3,27Zm-1.3,54.64-8,1.12V46.08l8-1.2Zm39-11.42a11.66,11.66,0,0,1-4.38,9.4,16.53,16.53,0,0,1-11,3.65,18.7,18.7,0,0,1-8.46-1.8,19.77,19.77,0,0,1-6.63-5.67l5.89-4.81a14.22,14.22,0,0,0,4,3,10.37,10.37,0,0,0,4.77,1.16,9.67,9.67,0,0,0,5-1.2,4.65,4.65,0,0,0,2.42-4.21q0-4.12-10.66-7.13T448.5,57.25A11.66,11.66,0,0,1,453,47.93a16,16,0,0,1,10.63-3.73,17,17,0,0,1,7.07,1.54A20.85,20.85,0,0,1,476.77,50l-5.11,5.75a17.93,17.93,0,0,0-3.86-2.92,8.86,8.86,0,0,0-4.3-1.11A8.21,8.21,0,0,0,458.82,53a4.57,4.57,0,0,0-2,4.08q0,3.87,10.67,6.87T478.16,76.92Z"/><path class="cls-5" d="M72,84.85A623.32,623.32,0,0,0,7.5,33.45v1.1C32.86,52.33,54,69.85,72,87.55Z"/><path class="cls-5" d="M72,82.16a551.86,551.86,0,0,0-48.53-55H22.16A444.42,444.42,0,0,1,72,86.12Z"/><path class="cls-5" d="M72,56.29c-6.48-9.44-13.56-19.21-21.4-29.16H49.38C57.8,38,65.3,48.62,72,59.15Z"/><rect class="cls-6" x="7.5" y="102.38" width="64.54" height="64.46"/><rect class="cls-6" x="82.83" y="27.13" width="64.46" height="64.46"/><rect class="cls-6" x="7.54" y="27.13" width="64.46" height="64.46"/><path class="cls-5" d="M94,91.59c-3.45-6.15-7.16-12.47-11.12-18.87v4.13c2.78,5,5.48,9.85,8,14.74Z"/><rect class="cls-6" x="82.83" y="102.38" width="64.46" height="64.46"/><path class="cls-7" d="M137,38.59c-2.36,1.43,2.61,4.47,3.2,5.4,0,0,4.47,2.27,3.12,2.86s-.51,1.94-2,1.43c-7.92-3-3.37,3.54-1,3,1.26-.26,3.79,3.7.25,4.46-1.52.34-20-3.62-18.2-2.36,2.69,1.86,19.8,6.83,17,8.85-1.1.76-18.54-7.16-17.53-3.71,1.35,4.72,20.9,5.14,22.92,13.23.42,1.52-12.22-3.37-11.88-3,5.06,7.5-1.52,3.54-4.89,3.88s10.87,6.06,11.21,7.5c.59,2.19-6.66,12.47-7.75,8.34s-7.92-3.79-8.18-7.42c-.33-3.45,11.55,2.7,11.46,1.77-.16-4.8-15.25-9.69-19.8-13.31-2.27-1.77-2.19-5.39,2-3.37,2,1,7.59,4.3,9.61,2.7,2.95-2.53-16.09-9.27-19.89-12.64-1.09-.93-9.6-7-1.17-8.09,8.84-1.18,27.72,1.6,27.72,1.18-.42-2.45-2.95-2.61-5.14-3.2-5.65-1.35-35.22-5.23-29-7.08s16.1.5,26,1.85c3.29.42,6.24,1.52,6,.51s1.09-1.27-.26-2.53c-1.51-1.52-22.49-4.55-21.82-6.07s2.7-2.27,5.31-2.78c.93-.25-1.35-2-1.35-2-3-1.26-12-.84-10.62-2.87,1.52-2.1,15.51,1.77,11.21-1-5.65-3.7-18.2-8.09-19.8-9.86v-.59h.08c5.06-3.2,20.56,8.52,21.15,4.64.26-1.6-5.22-3.79-5.64-5.06-4-10.44,44.82,14.33,27.72,25.28m-3.62,52v0Z"/><path class="cls-8" d="M154.87,192.54c-12.38-25.37-29.15-51.23-53-77.69-3.71-4-7.5-8.17-11.54-12.3H86.54l2.69,3c23.51,26.12,47.19,62.43,59.49,87.54ZM72,84.85A662.88,662.88,0,0,0,0,28.14l2.27,2.7C29.91,49.88,52.83,68.67,72,87.55Z"/><path class="cls-8" d="M129.59,192.37c-7.83-26.8-20-54.6-39-84-1.26-1.94-2.53-3.87-3.88-5.81H82.91c17.45,28.31,33.2,64.46,40.53,89.48ZM72,82.16C54.52,59.15,32.44,34.88,4.8,8.93l1.77,3C34,37.58,55.19,62,72,86Z"/><path class="cls-8" d="M130.94,194c-4.63-27.39-13.48-56.12-29-87.13-.68-1.43-1.44-2.86-2.11-4.29H96.14C109.71,132,120.58,168.1,124.88,193ZM94,91.68c-3.46-6.15-7.17-12.39-11.13-18.79V77c2.78,4.89,5.48,9.86,7.92,14.67ZM72,56.29A658.56,658.56,0,0,0,28.4,0l1.43,3.12A507.6,507.6,0,0,1,72,59.15Z"/></svg>