<svg id="Layer_1" data-name="Layer 1" xmlns="http://www.w3.org/2000/svg" viewBox="0 0 265.72 332.8"><defs><style>.cls-1{fill:#959743;}.cls-2{fill:#fff;}.cls-3{fill:#e5a724;fill-rule:evenodd;}.cls-4{fill:#98a539;}</style></defs><path class="cls-1" d="M123.61,145.58C92.52,117,56,87.61,12.87,57.39v1.88c43.51,30.51,79.8,60.58,110.74,90.94Z"/><path class="cls-1" d="M123.61,141A948.88,948.88,0,0,0,40.33,46.55H38c34.41,34.55,62.45,68.09,85.59,101.2Z"/><path class="cls-1" d="M123.61,96.57c-11.14-16.19-23.28-33-36.72-50H84.72C99.17,65.2,112,83.42,123.61,101.49Z"/><rect class="cls-2" x="12.87" y="175.65" width="110.74" height="110.59"/><rect class="cls-2" x="142.11" y="46.55" width="110.59" height="110.59"/><rect class="cls-2" x="12.94" y="46.55" width="110.59" height="110.59"/><path class="cls-1" d="M161.19,157.15c-5.92-10.56-12.29-21.4-19.08-32.39v7.09c4.77,8.53,9.4,16.91,13.73,25.3Z"/><rect class="cls-2" x="142.11" y="175.65" width="110.59" height="110.59"/><path class="cls-3" d="M235.07,66.21c-4,2.46,4.48,7.67,5.49,9.26,0,0,7.66,3.9,5.35,4.91-2.46.87-.87,3.33-3.47,2.46-13.59-5.06-5.78,6.07-1.73,5.2,2.16-.43,6.5,6.36.43,7.67-2.6.57-34.26-6.22-31.23-4,4.63,3.18,34,11.71,29.21,15.18-1.88,1.3-31.81-12.29-30.07-6.36,2.31,8.09,35.85,8.81,39.32,22.69.72,2.6-21-5.78-20.39-5.06,8.68,12.87-2.6,6.07-8.38,6.65-5.93.58,18.65,10.41,19.23,12.87,1,3.76-11.42,21.4-13.3,14.31s-13.59-6.5-14-12.72c-.57-5.93,19.81,4.63,19.66,3-.28-8.24-26.16-16.63-34-22.85-3.9-3-3.76-9.25,3.47-5.78,3.47,1.74,13,7.37,16.48,4.63,5.06-4.34-27.61-15.9-34.12-21.69-1.88-1.59-16.48-12-2-13.88,15.18-2,47.56,2.75,47.56,2-.72-4.19-5.06-4.48-8.82-5.5-9.68-2.31-60.43-9-49.73-12.14s27.62.87,44.53,3.18c5.64.72,10.7,2.6,10.26.87s1.88-2.17-.43-4.34c-2.6-2.6-38.6-7.81-37.44-10.41s4.62-3.9,9.11-4.77c1.59-.43-2.32-3.47-2.32-3.47-5.2-2.17-20.53-1.44-18.21-4.91,2.6-3.62,26.6,3,19.22-1.74-9.68-6.36-31.22-13.88-34-16.91v-1h.14c8.68-5.5,35.28,14.6,36.29,8,.44-2.75-9-6.51-9.68-8.68-6.8-17.92,76.91,24.58,47.56,43.37m-6.22,89.2v0Z"/><path class="cls-4" d="M265.72,330.34c-21.26-43.52-50-87.9-90.94-133.29-6.36-6.94-12.86-14-19.8-21.11h-6.51L153.1,181c40.33,44.82,81,107.13,102.06,150.21ZM123.61,145.58C89.34,114.21,48.72,81.83,0,48.29l3.9,4.62c47.42,32.68,86.74,64.91,119.71,97.3Z"/><path class="cls-4" d="M222.35,330.05c-13.45-46-34.27-93.68-66.94-144.13-2.17-3.33-4.34-6.65-6.65-10h-6.5c29.92,48.58,57,110.6,69.53,153.53ZM123.61,141C93.54,101.49,55.66,59.85,8.24,15.33l3,5.2c47,44,83.41,85.87,112.33,127.08Z"/><path class="cls-4" d="M224.66,332.8c-7.95-47-23.13-96.29-49.73-149.49-1.16-2.45-2.46-4.91-3.62-7.37H165c23.28,50.45,41.93,112.47,49.3,155.27ZM161.34,157.29c-5.93-10.55-12.29-21.25-19.08-32.24v7.09c4.77,8.38,9.39,16.91,13.59,25.15ZM123.61,96.57A1135.54,1135.54,0,0,0,48.72,0l2.46,5.35a872,872,0,0,1,72.43,96.14Z"/></svg>