<svg id="Layer_1" data-name="Layer 1" xmlns="http://www.w3.org/2000/svg" viewBox="0 0 551.29 103.78"><defs><style>.cls-1{fill:#e5a724;}.cls-2{fill:#4e4d4d;}.cls-3{fill:#807f80;}.cls-4{fill:#99a539;}</style></defs><polygon class="cls-1" points="245.33 26.18 244.36 30.59 233.52 30.59 233.52 41.84 229.13 42.66 229.13 30.59 217.39 30.59 218.23 26.18 229.13 26.18 229.13 14.94 233.52 14.11 233.52 26.18 245.33 26.18"/><path class="cls-2" d="M1,103.72,1,61.41H3.2v40.11H13.52l.09,2.2Zm25.22,0,6.47-42.26h2.41l7,42.26H39.53l-2.61-14.4H31.2l-2.58,14.4Zm4.86-16.6h5.63L33.81,65.67Zm23.52,16.6h2.17V70.09l8.54,33.63h1.78V61.52H65v32l-8.1-32-2.28,0Zm25.26,0v-42h5.24a5.35,5.35,0,0,1,2.72.55,6.42,6.42,0,0,1,2.25,3.05,27.07,27.07,0,0,1,1.8,7.16,76.16,76.16,0,0,1,.58,10,82.11,82.11,0,0,1-.39,8.51,38.35,38.35,0,0,1-1,6.1,18.92,18.92,0,0,1-1.38,3.8A5.79,5.79,0,0,1,87.86,103a4.24,4.24,0,0,1-2.47.75ZM81.84,102H85a5,5,0,0,0,1.91-1.34,12.28,12.28,0,0,0,1.72-4,27.55,27.55,0,0,0,1.17-5.88q.23-2.8.55-8.43a75.83,75.83,0,0,0-1-12.17,24.63,24.63,0,0,0-1.67-5.69A4.12,4.12,0,0,0,85,63.58H81.84Zm26.27-23.65c0,1.69.78,2.53,2.33,2.53h5.88c1.41,0,2.11.88,2.11,2.64V99.21a5.62,5.62,0,0,1-.84,3.08,3.36,3.36,0,0,1-2.82,1.43h-5.88a2.91,2.91,0,0,1-2.11-1.38,4.51,4.51,0,0,1-.84-2.8V90.31h2v7.75a6.72,6.72,0,0,0,.44,2.74c.3.63,1,.94,2,.94h2.72a2.88,2.88,0,0,0,2.42-1,4.15,4.15,0,0,0,.78-2.64l-.09-12.42c.06-1.72-.72-2.6-2.33-2.63h-5q-2.9,0-2.89-3.74V65.91a5.49,5.49,0,0,1,.85-3.07,3.31,3.31,0,0,1,2.81-1.43h5.89a2.66,2.66,0,0,1,2.27,1.37,5.24,5.24,0,0,1,.67,2.8v9.23h-1.95V67.07a6.58,6.58,0,0,0-.44-2.75c-.3-.62-1-.94-2-.94h-3.83a1.68,1.68,0,0,0-1.54,1,5.52,5.52,0,0,0-.54,2.64l0,9.56ZM134,82.07v-5.5l0-9.56a5.52,5.52,0,0,1,.54-2.64,1.69,1.69,0,0,1,1.54-1H140c1.08,0,1.76.32,2.06.94a6.74,6.74,0,0,1,.44,2.75v7.74h1.94V65.58a4,4,0,0,0-1-2.8,3.71,3.71,0,0,0-2.72-1.37h-5.1a3.32,3.32,0,0,0-2.82,1.43,5.56,5.56,0,0,0-.84,3.07v33.3a5.9,5.9,0,0,0,.79,3,3.13,3.13,0,0,0,2.76,1.49h5.44a3.23,3.23,0,0,0,2.55-1.38,4.44,4.44,0,0,0,.83-2.8V90.31h-1.94v7.75a6.72,6.72,0,0,1-.44,2.74c-.3.63-1,.94-2.06.94h-2.72q-2,0-2.55-1A5.67,5.67,0,0,1,134,98V82.07Zm23.61,21.65,6.47-42.26h2.41l7,42.26h-2.58l-2.61-14.4h-5.72L160,103.72Zm4.86-16.6h5.63l-2.94-21.45ZM186,103.72V61.49h6.85A4.07,4.07,0,0,1,196,62.64a8.82,8.82,0,0,1,1.72,4,28.37,28.37,0,0,1,.66,6.36,20.17,20.17,0,0,1-1.1,7.28,7.58,7.58,0,0,1-2.15,3.46,9.69,9.69,0,0,1-3,1.15l-1.67,0H188v18.77Zm2.05-20.44h4a6.87,6.87,0,0,0,2.78-2.09,10.51,10.51,0,0,0,1.22-3.3,33.76,33.76,0,0,0,.69-5.14,36.11,36.11,0,0,0-1-7c-.48-1.72-1.86-2.77-4.16-3.13l-3.47.08ZM212,103.72V61.57h12.18l0,1.92h-10V80.94h9.21v2.17h-9.21v18.52h10.32l.09,2.09Zm46.9,0,6.46-42.26h2.42l7,42.26h-2.58l-2.61-14.4h-5.71l-2.59,14.4Zm4.85-16.6h5.64l-2.95-21.45Zm23.5,16.6V61.43h6.85a4.11,4.11,0,0,1,3.15,1.14,8.88,8.88,0,0,1,1.72,4,28.59,28.59,0,0,1,.66,6.37,23.44,23.44,0,0,1-1.07,7.59c-.72,2-1.81,3.35-3.29,3.9a9.61,9.61,0,0,1,1.22,2.11,42,42,0,0,1,1.69,5.61l2.72,11.54H298.3l-2.05-8.82q-.92-3.83-1.5-5.84a14.55,14.55,0,0,0-1-2.82,3.55,3.55,0,0,0-.93-1.12,2.38,2.38,0,0,0-1.14-.2h-2.39v18.8Zm2-20.44h3.8a3.49,3.49,0,0,0,2.61-1.6,12.69,12.69,0,0,0,1.22-3.46,31.57,31.57,0,0,0,.67-5.41,25.15,25.15,0,0,0-.81-7.09,4.12,4.12,0,0,0-3.91-3h-3.58Zm26.08-1.1-.1-3.73-.05-1.76L315,67.13a5.55,5.55,0,0,1,.47-2.65,1.67,1.67,0,0,1,1.51-1l3.83-.11c1.07,0,1.76.26,2.08.88a6.75,6.75,0,0,1,.52,2.73l.22,7.74,1.94,0-.26-9.23a4,4,0,0,0-1.08-2.77,3.77,3.77,0,0,0-2.76-1.3l-5.1.15A3.33,3.33,0,0,0,313.55,63a5.48,5.48,0,0,0-.75,3.1l.05,1.75.84,29.77.05,1.76a5.87,5.87,0,0,0,.88,3,3.11,3.11,0,0,0,2.8,1.4l5.43-.15a3.24,3.24,0,0,0,2.52-1.45,4.43,4.43,0,0,0,.75-2.82l-.26-9.23-1.94.06.22,7.74a6.66,6.66,0,0,1-.37,2.76c-.28.63-.95,1-2,1l-2.71.08c-1.33,0-2.2-.27-2.58-.92a5.72,5.72,0,0,1-.64-2.73l-.35-12.3Zm26,.88v20.66h-2.22V61.52h2.11V80.86h8.43V61.52h1.89v42.2h-2.22v-18l.08-2.58-2.41,0Zm41.73-21.54h12.54v2h-5.44v40.23h-2V63.49h-5.1Zm-16.87-.06h2v42.2h-2V63.44Zm42.85,42.26V61.57h12.18l0,1.92h-10V80.94h9.22v2.17h-9.22v18.52H421.6l.08,2.09Zm28.08-21.65v-5.5l0-9.56a5.52,5.52,0,0,1,.54-2.64,1.7,1.7,0,0,1,1.54-1h3.83c1.08,0,1.76.32,2.06.94a6.74,6.74,0,0,1,.44,2.75v7.74h1.94V65.58a4,4,0,0,0-1-2.8,3.69,3.69,0,0,0-2.71-1.37h-5.11a3.34,3.34,0,0,0-2.82,1.43,5.56,5.56,0,0,0-.84,3.07v33.3a5.9,5.9,0,0,0,.79,3,3.13,3.13,0,0,0,2.76,1.49h5.44a3.23,3.23,0,0,0,2.55-1.38,4.44,4.44,0,0,0,.83-2.8V90.31h-1.94v7.75a6.72,6.72,0,0,1-.44,2.74c-.3.63-1,.94-2.06.94h-2.72q-2,0-2.55-1a5.68,5.68,0,0,1-.55-2.75V82.07Zm23.69-20.55h12.54v2H468v40.23h-2V63.49h-5.1ZM486.8,99.1a5.59,5.59,0,0,0,.89,3.19,3.73,3.73,0,0,0,3.11,1.43h4.63a3.73,3.73,0,0,0,3.11-1.43,5.59,5.59,0,0,0,.89-3.19V61.52h-2.22V98.11a4.15,4.15,0,0,1-.78,2.64,3,3,0,0,1-2.52,1h-1.45a3.19,3.19,0,0,1-2.66-1,4.15,4.15,0,0,1-.78-2.64V61.52H486.8V99.1Zm25.94,4.62V61.43h6.86a4.13,4.13,0,0,1,3.15,1.14,9,9,0,0,1,1.72,4,29.22,29.22,0,0,1,.65,6.37,23.44,23.44,0,0,1-1.07,7.59,5.82,5.82,0,0,1-3.29,3.9A9.23,9.23,0,0,1,522,86.57a42,42,0,0,1,1.69,5.61l2.72,11.54h-2.58l-2-8.82q-.91-3.83-1.5-5.84a13.9,13.9,0,0,0-1-2.82,3.31,3.31,0,0,0-.93-1.12,2.38,2.38,0,0,0-1.14-.2h-2.38v18.8Zm2.06-20.44h3.8a3.53,3.53,0,0,0,2.61-1.6,13,13,0,0,0,1.22-3.46,32.72,32.72,0,0,0,.66-5.41,25.58,25.58,0,0,0-.8-7.09,4.13,4.13,0,0,0-3.92-3H514.8Zm23.92,20.44V61.57H550.9l0,1.92h-10V80.94h9.21v2.17h-9.21v18.52h10.32l.08,2.09Z"/><path class="cls-3" d="M294.82,45.23,288.53,47l-7.65-15.47H263L255.16,47l-6.42-1.73L271.52.3ZM278,25.68l-6.14-12.25-6.21,12.25Zm40.74,11.56a8.67,8.67,0,0,1-3.26,7A12.31,12.31,0,0,1,307.33,47,13.79,13.79,0,0,1,301,45.61a14.8,14.8,0,0,1-4.94-4.21l4.39-3.58a10.58,10.58,0,0,0,3,2.27A7.72,7.72,0,0,0,307,41a7.21,7.21,0,0,0,3.74-.89,3.47,3.47,0,0,0,1.81-3.13q0-3.07-7.94-5.31t-7.94-9A8.66,8.66,0,0,1,300,15.68a11.93,11.93,0,0,1,7.9-2.78,12.6,12.6,0,0,1,5.26,1.15,15.46,15.46,0,0,1,4.55,3.13l-3.81,4.28A12.84,12.84,0,0,0,311,19.29a6.57,6.57,0,0,0-3.19-.83,6.14,6.14,0,0,0-3.49,1,3.39,3.39,0,0,0-1.48,3q0,2.86,7.94,5.11T318.75,37.24Zm26.53,0a8.7,8.7,0,0,1-3.26,7A12.31,12.31,0,0,1,333.86,47a13.79,13.79,0,0,1-6.29-1.35,14.8,14.8,0,0,1-4.94-4.21L327,37.82a10.58,10.58,0,0,0,3,2.27,7.72,7.72,0,0,0,3.55.86,7.21,7.21,0,0,0,3.74-.89,3.47,3.47,0,0,0,1.81-3.13q0-3.07-7.94-5.31t-7.94-9a8.66,8.66,0,0,1,3.33-6.93,11.91,11.91,0,0,1,7.9-2.78,12.6,12.6,0,0,1,5.26,1.15,15.59,15.59,0,0,1,4.55,3.13l-3.81,4.28a12.84,12.84,0,0,0-2.87-2.17,6.6,6.6,0,0,0-3.19-.83,6.14,6.14,0,0,0-3.49,1,3.39,3.39,0,0,0-1.48,3q0,2.86,7.93,5.11T345.28,37.24Zm39.29-7.47a16.51,16.51,0,0,1-4.93,12.36A17,17,0,0,1,367.28,47a17.32,17.32,0,0,1-12.52-4.86,16.22,16.22,0,0,1-5-12.2,16.12,16.12,0,0,1,5.13-12,17,17,0,0,1,12.22-5,17.27,17.27,0,0,1,12.39,4.86A15.92,15.92,0,0,1,384.57,29.77Zm-6.13-.06a11.28,11.28,0,0,0-11.29-11.25,10.79,10.79,0,0,0-7.94,3.32,10.9,10.9,0,0,0-3.29,7.93,10.8,10.8,0,0,0,3.29,8,11,11,0,0,0,8,3.26,11.1,11.1,0,0,0,8.07-3.07A10.85,10.85,0,0,0,378.44,29.71Zm39.95,11.94A16.91,16.91,0,0,1,405.68,47a16.17,16.17,0,0,1-11.94-5.05,16.55,16.55,0,0,1-5-12A16.92,16.92,0,0,1,393.48,18a16.13,16.13,0,0,1,12.33-5.37,17.92,17.92,0,0,1,6.55,1.24,23.33,23.33,0,0,1,6,3.44l-4.06,4.39a17,17,0,0,0-4.07-2.47,11.82,11.82,0,0,0-4.45-.78,10.44,10.44,0,0,0-7.55,3.26A10.33,10.33,0,0,0,395,29.23a11.51,11.51,0,0,0,3.29,8.33A10.94,10.94,0,0,0,406.45,41a10.1,10.1,0,0,0,4.13-.89,14,14,0,0,0,3.75-2.5ZM431.55,5.09l-3.87,5-4.07-5,4.07-5Zm-1,40.65-5.93.83V14.31l5.93-.9Zm34.07-.06-5.94.83V42.74a9.44,9.44,0,0,1-3.63,3.16A10.84,10.84,0,0,1,450.22,47a12.72,12.72,0,0,1-9.17-3.36,11.85,11.85,0,0,1-3.5-9,10.82,10.82,0,0,1,3.6-8.18,12.8,12.8,0,0,1,9.13-3.39,13.41,13.41,0,0,1,4.6.74,10.87,10.87,0,0,1,3.83,2.46V23.64a4.39,4.39,0,0,0-2.38-4.29,12.9,12.9,0,0,0-5.46-.89,22.22,22.22,0,0,0-4.73.54,24.21,24.21,0,0,0-4.72,1.57l1.35-6.39a46.73,46.73,0,0,1,5.1-.93,40.84,40.84,0,0,1,5-.35c3.53,0,6.3.85,8.33,2.56q3.48,2.94,3.48,8.81ZM459,34.79a5,5,0,0,0-2.35-4.26,8.7,8.7,0,0,0-5.07-1.66,9.57,9.57,0,0,0-5.23,1.4,5.08,5.08,0,0,0-2.58,4.45,5.57,5.57,0,0,0,2.26,4.9A9.57,9.57,0,0,0,451.55,41a8.36,8.36,0,0,0,5.19-1.68A5.39,5.39,0,0,0,459,34.79Zm30.39,5.86a2.58,2.58,0,0,0,.78-.15L489,46.26a4,4,0,0,1-.9.12,29.54,29.54,0,0,1-4.13.32q-4.77,0-7.29-2.68-2.72-2.87-2.71-8.67V19.16h-5l2.19-5.56h2.84V5.41l5.94-1.6V13.6H489v5.56h-9.09V35.3c0,3.72,1.93,5.59,5.8,5.59a27.86,27.86,0,0,0,3.68-.24Zm35.17-18.8-23.68,13.8a12.45,12.45,0,0,0,3.42,3.7,9.7,9.7,0,0,0,5.55,1.6,15.88,15.88,0,0,0,6.77-1.53,33,33,0,0,0,5.88-3.77L523.76,42a27.29,27.29,0,0,1-6.55,3.71A19.58,19.58,0,0,1,510.14,47,17.32,17.32,0,0,1,497.63,42,16.14,16.14,0,0,1,492.53,30a16.46,16.46,0,0,1,5-12,16.51,16.51,0,0,1,12.16-5,16.82,16.82,0,0,1,8.78,2.43A15.28,15.28,0,0,1,524.53,21.85Zm-8.92-1.18a8.4,8.4,0,0,0-5.93-2.21A10.56,10.56,0,0,0,502,21.7a10.52,10.52,0,0,0-3.26,7.72l0,1.15Zm35,16.57a8.7,8.7,0,0,1-3.26,7A12.31,12.31,0,0,1,539.18,47a13.79,13.79,0,0,1-6.29-1.35A14.7,14.7,0,0,1,528,41.4l4.39-3.58a10.58,10.58,0,0,0,3,2.27,7.68,7.68,0,0,0,3.54.86,7.23,7.23,0,0,0,3.75-.89,3.46,3.46,0,0,0,1.8-3.13q0-3.07-7.93-5.31t-7.94-9a8.68,8.68,0,0,1,3.32-6.93,12,12,0,0,1,7.91-2.78A12.64,12.64,0,0,1,545,14.05a15.59,15.59,0,0,1,4.55,3.13l-3.81,4.28a12.84,12.84,0,0,0-2.87-2.17,6.61,6.61,0,0,0-3.2-.83,6.13,6.13,0,0,0-3.48,1,3.4,3.4,0,0,0-1.49,3q0,2.86,7.94,5.11T550.6,37.24Z"/><path class="cls-4" d="M23,24.07a11,11,0,0,1,5.55,10.11,11.71,11.71,0,0,1-4.35,9.28,15.14,15.14,0,0,1-10.1,3.71,17.4,17.4,0,0,1-7.84-1.74A18,18,0,0,1,0,40.23l4.9-4.11A17.78,17.78,0,0,0,8.84,39.8a9.68,9.68,0,0,0,5.23,1.36,8.8,8.8,0,0,0,5.48-1.66A6.12,6.12,0,0,0,22,34.32c0-2.78-1.82-4.89-5.48-6.34q-5.16-1.92-10.26-3.9A10.87,10.87,0,0,1,.71,14,10.66,10.66,0,0,1,4.9,5.1,16.55,16.55,0,0,1,15.29,1.87,15.05,15.05,0,0,1,22.2,3.5a15.74,15.74,0,0,1,5.48,4.57l-4.51,4.6a14.82,14.82,0,0,0-3.75-3.52,10.12,10.12,0,0,0-5.09-1.21,8.08,8.08,0,0,0-5,1.57,5.16,5.16,0,0,0-2.06,4.38c0,2.65,1.76,4.67,5.29,6.08s7,2.77,10.45,4.1Zm42-2.33L41.3,35.54a12.62,12.62,0,0,0,3.42,3.71,9.77,9.77,0,0,0,5.55,1.59A15.88,15.88,0,0,0,57,39.31a32.59,32.59,0,0,0,5.87-3.77l1.29,6.33a26.87,26.87,0,0,1-6.55,3.7,19.52,19.52,0,0,1-7.06,1.28,17.34,17.34,0,0,1-12.52-4.92A16.15,16.15,0,0,1,33,29.85,17.11,17.11,0,0,1,50.14,12.79a16.82,16.82,0,0,1,8.78,2.43A15.28,15.28,0,0,1,65,21.74Zm-8.92-1.18a8.41,8.41,0,0,0-5.93-2.21,10.54,10.54,0,0,0-7.7,3.24,10.52,10.52,0,0,0-3.26,7.72l0,1.16Zm34.73-7.7L87.88,18.8h-1q-5.3,0-7.68,4.09-2,3.39-2,9.26V45.64l-5.93.83V14.2l5.93-.89v6.58a13.66,13.66,0,0,1,4.42-5.43,11.21,11.21,0,0,1,6.55-1.86,12.23,12.23,0,0,1,1.33.07A11.34,11.34,0,0,1,90.79,12.86Zm36.4,43.57-5.81.71V41.87a15.5,15.5,0,0,1-11.6,5,15.7,15.7,0,0,1-12-5.08,17.07,17.07,0,0,1-4.76-12.11,16.46,16.46,0,0,1,4.83-11.85,16.34,16.34,0,0,1,18-3.8,20,20,0,0,1,5.51,3.58V14.14l5.81-.9Zm-5.81-26.7A10.81,10.81,0,0,0,118,21.55a11.61,11.61,0,0,0-8.33-3.2,9.63,9.63,0,0,0-7.38,3.36,11,11,0,0,0-3.07,7.7,11.7,11.7,0,0,0,3,8.18,9.62,9.62,0,0,0,7.42,3.25,11.69,11.69,0,0,0,8.49-3.16A10.62,10.62,0,0,0,121.38,29.73Zm42.39,15.84-5.93.83V41.93a15.91,15.91,0,0,1-4.63,3.74,12.55,12.55,0,0,1-5.67,1.18,10.58,10.58,0,0,1-8-3.07q-3.17-3.26-3.17-8.88V14.14l5.94-.9V34.9a5.36,5.36,0,0,0,1.94,4.35,7.63,7.63,0,0,0,5,1.59,7.8,7.8,0,0,0,6.29-2.68,10.94,10.94,0,0,0,2.27-7.28V14.14l5.93-.9ZM179.77,5l-3.87,5-4.07-5,4.07-5Zm-1,40.66-5.93.83V14.2l5.93-.89Zm29-8.5a8.69,8.69,0,0,1-3.26,7,12.3,12.3,0,0,1-8.17,2.72,14,14,0,0,1-6.29-1.34,14.81,14.81,0,0,1-4.93-4.22l4.38-3.58a10.39,10.39,0,0,0,3,2.27,7.59,7.59,0,0,0,3.55.86,7.09,7.09,0,0,0,3.74-.89,3.44,3.44,0,0,0,1.81-3.13q0-3.07-7.94-5.3t-7.93-9A8.68,8.68,0,0,1,189,15.57a11.93,11.93,0,0,1,7.9-2.78,12.76,12.76,0,0,1,5.26,1.15,15.49,15.49,0,0,1,4.55,3.14L203,21.36a13.17,13.17,0,0,0-2.88-2.18,6.57,6.57,0,0,0-3.19-.83,6.1,6.1,0,0,0-3.48,1,3.41,3.41,0,0,0-1.49,3q0,2.88,7.94,5.11T207.79,37.14Z"/></svg>